# xmcd CD database file
#
# Track frame offsets:
#	150
#	11900
#	21663
#	35538
#	38768
#	46043
#	66150
#	77838
#	94120
#	102000
#	117588
#	128913
#	148503
#
# Disc length: 2240 seconds
#
# Revision: 2
# Processed by: cddbd v1.5.2PL0 Copyright (c) Steve Scherf et al.
# Submitted via: CDex 1.70beta2
#
DISCID=af08be0d
DTITLE=Peter Lai - 秋葉緣
DYEAR=1994
DGENRE=New Age
TTITLE0=Overture
TTITLE1=春節
TTITLE2=Joy For Winter
TTITLE3=秋葉緣....序
TTITLE4=再見也是緣嗎
TTITLE5=雨季
TTITLE6=過客
TTITLE7=再見也是緣
TTITLE8=冬前
TTITLE9=秋葉緣
TTITLE10=For Alice
TTITLE11=秋葉
TTITLE12=呼喚
EXTD=YEAR: 1994
EXTT0=
EXTT1=
EXTT2=
EXTT3=
EXTT4=
EXTT5=
EXTT6=
EXTT7=
EXTT8=
EXTT9=
EXTT10=
EXTT11=
EXTT12=
PLAYORDER=
